# xmcd
#
# Track frame offsets:
#	150
#	20805
#	33508
#	49983
#	68244
#	86238
#	100171
#	126138
#	142695
#	159445
#	177369
#
# Disc length: 2619 seconds
#
# Revision: 2
# Processed by: cddbd v1.5.2PL0 Copyright (c) Steve Scherf et al.
# Submitted via: audiograbber 1.83.01
#
DISCID=940a390b
DTITLE=Mike Goudreau Band  - Time For Messin' Around
DYEAR=2013
DGENRE=Blues
TTITLE0=Time for Messin' Around
TTITLE1=Toss Down the Dice
TTITLE2=Awful Jealousy
TTITLE3=Mind Your Own Business
TTITLE4=Blame It On Addiction
TTITLE5=She's in the Pocket
TTITLE6=J'essaierai De Tenir Debout
TTITLE7=Wasn't That a Party
TTITLE8=Should Quit Your Drinking
TTITLE9=Love These Blues
TTITLE10=She's a Woman
EXTD=
EXTT0=
EXTT1=
EXTT2=
EXTT3=
EXTT4=
EXTT5=
EXTT6=
EXTT7=
EXTT8=
EXTT9=
EXTT10=
PLAYORDER=
